<svg xmlns="http://www.w3.org/2000/svg" version="1.1" xmlns:xlink="http://www.w3.org/1999/xlink" xmlns:svgjs="http://svgjs.dev/svgjs" width="2000" height="1250" viewBox="0 0 2000 1250"><g transform="matrix(1,0,0,1,0,0)"><svg viewBox="0 0 512 320" data-background-color="#ffffff" preserveAspectRatio="xMidYMid meet" height="1250" width="2000" xmlns="http://www.w3.org/2000/svg" xmlns:xlink="http://www.w3.org/1999/xlink"><g id="tight-bounds" transform="matrix(1,0,0,1,0,0)"><svg viewBox="0 0 512 320" height="320" width="512"><g><svg></svg></g><g><svg viewBox="0 0 512 320" height="320" width="512"><g><path d="M96 160c0-88.366 71.634-160 160-160 88.366 0 160 71.634 160 160 0 88.366-71.634 160-160 160-88.366 0-160-71.634-160-160zM256 311.658c83.758 0 151.658-67.9 151.658-151.658 0-83.758-67.9-151.658-151.658-151.658-83.758 0-151.658 67.9-151.658 151.658 0 83.758 67.9 151.658 151.658 151.658z" fill="#5842e3" fill-rule="nonzero" stroke="none" stroke-width="1" stroke-linecap="butt" stroke-linejoin="miter" stroke-miterlimit="10" stroke-dasharray="" stroke-dashoffset="0" font-family="none" font-weight="none" font-size="none" text-anchor="none" style="mix-blend-mode: normal" data-fill-palette-color="tertiary"></path></g><g transform="matrix(1,0,0,1,202.0930023060095,80)"><svg viewBox="0 0 107.81399538798098 160" height="160" width="107.81399538798098"><g><svg viewBox="0 0 256 379.9135710776765" height="160" width="107.81399538798098"><g transform="matrix(1,0,0,1,0,184.1341611339954)"><svg viewBox="0 0 256 195.77940994368112" height="195.77940994368112" width="256"><g id="textblocktransform"><svg viewBox="0 0 256 195.77940994368112" height="195.77940994368112" width="256" id="textblock"><g><svg viewBox="0 0 256 109.82124880968576" height="109.82124880968576" width="256"><g transform="matrix(1,0,0,1,0,0)"><svg width="256" viewBox="4.1 -35.05 105.004705878407 45.05" height="109.82124880968576" data-palette-color="#5842e3"><path d="M23.1-34.65Q23.35-35 23.7-35L23.7-35 26.3-35Q26.8-35 26.8-34.5L26.8-34.5 26.8-0.5Q26.8 0 26.3 0L26.3 0 23.75 0Q23.25 0 23.25-0.5L23.25-0.5 23.25-27.7Q23.25-27.85 23.15-27.9 23.05-27.95 23-27.8L23-27.8 16.35-16.25Q16.1-15.9 15.75-15.9L15.75-15.9 15.2-15.9Q14.85-15.9 14.6-16.25L14.6-16.25 7.9-27.75Q7.85-27.9 7.75-27.85 7.65-27.8 7.65-27.65L7.65-27.65 7.65-0.5Q7.65 0 7.15 0L7.15 0 4.6 0Q4.1 0 4.1-0.5L4.1-0.5 4.1-34.5Q4.1-35 4.6-35L4.6-35 7.2-35Q7.55-35 7.8-34.65L7.8-34.65 15.35-21.8Q15.4-21.75 15.5-21.75 15.6-21.75 15.65-21.8L15.65-21.8 23.1-34.65ZM56.05-35.05Q60.05-35.05 62.52-32.38 65-29.7 65-25.3L65-25.3Q65-20.95 62.52-18.32 60.05-15.7 56.05-15.7L56.05-15.7 48.6-15.7Q48.4-15.7 48.4-15.5L48.4-15.5 48.4-0.5Q48.4 0 47.9 0L47.9 0 45.35 0Q44.85 0 44.85-0.5L44.85-0.5 44.85-34.55Q44.85-35.05 45.35-35.05L45.35-35.05 56.05-35.05ZM55.6-18.65Q58.25-18.65 59.84-20.45 61.45-22.25 61.45-25.25L61.45-25.25Q61.45-28.3 59.84-30.13 58.25-31.95 55.6-31.95L55.6-31.95 48.6-31.95Q48.4-31.95 48.4-31.75L48.4-31.75 48.4-18.85Q48.4-18.65 48.6-18.65L48.6-18.65 55.6-18.65ZM78.29-25.7Q82.29-25.7 84.57-23.4 86.84-21.1 86.84-17.3L86.84-17.3 86.84-0.5Q86.84 0 86.34 0L86.34 0 83.79 0Q83.29 0 83.29-0.5L83.29-0.5 83.29-2.3Q83.29-2.4 83.22-2.45 83.14-2.5 83.04-2.4L83.04-2.4Q81.94-1 80.24-0.3 78.54 0.4 76.44 0.4L76.44 0.4Q73.29 0.4 71.07-1.3 68.84-3 68.84-6.85L68.84-6.85Q68.84-10.85 71.42-12.93 73.99-15 78.44-15L78.44-15 83.09-15Q83.29-15 83.29-15.2L83.29-15.2 83.29-17.1Q83.29-19.65 82.02-21.13 80.74-22.6 78.24-22.6L78.24-22.6Q76.29-22.6 74.99-21.63 73.69-20.65 73.44-19.05L73.44-19.05Q73.39-18.6 72.89-18.6L72.89-18.6 70.14-18.75Q69.89-18.75 69.77-18.9 69.64-19.05 69.69-19.25L69.69-19.25Q70.04-22.15 72.42-23.93 74.79-25.7 78.29-25.7L78.29-25.7ZM77.14-2.7Q79.64-2.7 81.47-4.08 83.29-5.45 83.29-7.9L83.29-7.9 83.29-11.95Q83.29-12.15 83.09-12.15L83.09-12.15 78.69-12.15Q75.84-12.15 74.14-10.83 72.44-9.5 72.44-7.05L72.44-7.05Q72.44-4.85 73.74-3.78 75.04-2.7 77.14-2.7L77.14-2.7ZM92.04 10Q91.69 10 91.69 9.5L91.69 9.5 91.69 7.5Q91.69 7 92.19 7L92.19 7 92.29 7Q94.04 6.95 95.02 6.4 95.99 5.85 96.67 4.45 97.34 3.05 98.04 0.15L98.04 0.15Q98.09 0.1 98.07-0.03 98.04-0.15 98.04-0.15L98.04-0.15 90.59-24.75 90.54-24.9Q90.54-25.3 91.04-25.3L91.04-25.3 93.74-25.3Q94.19-25.3 94.29-24.85L94.29-24.85 99.74-4.9Q99.79-4.8 99.87-4.8 99.94-4.8 99.99-4.9L99.99-4.9 105.44-24.85Q105.54-25.3 105.99-25.3L105.99-25.3 108.64-25.3Q108.89-25.3 109.02-25.15 109.14-25 109.09-24.75L109.09-24.75 100.94 2.2Q99.94 5.55 98.97 7.15 97.99 8.75 96.52 9.38 95.04 10 92.34 10L92.34 10 92.04 10Z" opacity="1" transform="matrix(1,0,0,1,0,0)" fill="#5842e3" class="wordmark-text-0" data-fill-palette-color="primary" id="text-0"></path></svg></g></svg></g><g transform="matrix(1,0,0,1,48.896,135.74740994368113)"><svg viewBox="0 0 158.208 60.03199999999999" height="60.03199999999999" width="158.208"><g transform="matrix(1,0,0,1,0,0)"><svg width="158.208" viewBox="3.5 -35.5 123.59 46.9" height="60.03199999999999" data-palette-color="#5842e3"><path d="M15.65-26.3L19.75-10.85 20.05-10.85 24.15-26.3Q25.45-31.3 28.15-33.15 30.85-35 36.3-35L36.3-35 36.3 0 31.6 0 31.6-29.7Q30.3-29.15 29.63-28.15 28.95-27.15 28.35-25.15L28.35-25.15 22.1-3.7 17.7-3.7 11.4-25.15Q10.8-27.2 10.15-28.18 9.5-29.15 8.2-29.7L8.2-29.7 8.2 0 3.5 0 3.5-35Q8.95-35 11.63-33.13 14.3-31.25 15.65-26.3L15.65-26.3ZM59.4-23.2L59.4 0 54.7 0 54.7-23Q54.7-28.9 57.87-32.2 61.05-35.5 66.3-35.5L66.3-35.5Q71.9-35.5 74.97-32.3 78.05-29.1 78.05-24.15L78.05-24.15Q78.05-21.05 76.92-18.75 75.8-16.45 73.9-15.2 72-13.95 69.85-13.35 67.7-12.75 65.35-12.75L65.35-12.75 61.6-12.75 61.6-17.15 65.9-17.15Q69.25-17.15 71.17-19.18 73.1-21.2 73.1-24.25L73.1-24.25Q73.1-27.25 71.32-29.18 69.55-31.1 66.25-31.1L66.25-31.1Q63.05-31.1 61.22-28.93 59.4-26.75 59.4-23.2L59.4-23.2ZM96.14-14.1L96.14-14.1 96.14-9.6Q94.24-11.05 91.49-11.05L91.49-11.05Q89.14-11.05 87.84-10.13 86.54-9.2 86.54-7.5L86.54-7.5Q86.54-4.2 91.44-4.2L91.44-4.2 98.04-4.2 98.04-13.75Q98.04-19.8 92.14-19.8L92.14-19.8 84.14-19.8 84.14-24 92.39-24Q97.24-24 99.84-21.6 102.44-19.2 102.44-14.7L102.44-14.7 102.44 0 91.29 0Q87.04 0 84.54-1.9 82.04-3.8 82.04-7.45 82.04-11.1 84.69-13 87.34-14.9 91.34-14.9L91.34-14.9Q93.59-14.9 96.14-14.1ZM107.19-11.65L107.19-24 111.59-24 111.59-11.45Q111.59-7.4 112.84-5.8 114.09-4.2 117.44-4.2L117.44-4.2 122.69-4.2 122.69-24 127.09-24 127.09-1.2Q127.09 5.05 123.82 8.22 120.54 11.4 113.54 11.4L113.54 11.4 109.94 11.4 109.94 7.2 113.09 7.2Q122.24 7.2 122.69 0L122.69 0 118.49 0Q111.94 0 109.57-2.3 107.19-4.6 107.19-11.65L107.19-11.65Z" opacity="1" transform="matrix(1,0,0,1,0,0)" fill="#5842e3" class="slogan-text-1" data-fill-palette-color="secondary" id="text-1"></path></svg></g></svg></g></svg></g></svg></g><g transform="matrix(1,0,0,1,48.896,0)"><svg viewBox="0 0 158.208 158.20800000000003" height="158.20800000000003" width="158.208"><g><svg></svg></g><g id="icon-0"><svg viewBox="0 0 158.208 158.20800000000003" height="158.20800000000003" width="158.208"><g><path transform="scale(1.58208,1.58208)" d="M30 100c-16.569 0-30-13.431-30-30v-40c0-16.569 13.431-30 30-30h40c16.569 0 30 13.431 30 30v40c0 16.569-13.431 30-30 30z" fill="#5842e3" fill-rule="nonzero" stroke="none" stroke-width="1" stroke-linecap="butt" stroke-linejoin="miter" stroke-miterlimit="10" stroke-dasharray="" stroke-dashoffset="0" font-family="none" font-weight="none" font-size="none" text-anchor="none" style="mix-blend-mode: normal" data-fill-palette-color="accent"></path></g><g transform="matrix(1,0,0,1,31.641600000000004,31.97522279680181)"><svg viewBox="0 0 94.92479999999999 94.25755440639641" height="94.25755440639641" width="94.92479999999999"><g><svg xmlns="http://www.w3.org/2000/svg" xmlns:xlink="http://www.w3.org/1999/xlink" version="1.1" x="0" y="0" viewBox="10.101 7.7916006323670555 85.02707183063532 84.42939936763295" enable-background="new 0 0 100 100" xml:space="preserve" height="94.25755440639641" width="94.92479999999999" class="icon-dxe-0" data-fill-palette-color="quaternary" id="dxe-0"><g fill="#ffffff" data-fill-palette-color="quaternary"><path d="M94.975 54.402A4.23 4.23 0 0 0 90.915 51.315C90.535 51.315 90.156 51.367 89.788 51.468A2.8 2.8 0 0 1 89.012 51.576 3.1 3.1 0 0 1 87.676 51.283 3.7 3.7 0 0 1 86.829 50.774C86.549 50.544 86.374 50.339 86.244 50.092A2.34 2.34 0 0 0 84.175 48.843C82.945 48.843 81.926 49.806 81.856 51.036 81.842 51.269 81.874 51.498 81.927 51.721L79.573 54.298 79.503 29.679C79.503 29.643 79.492 29.609 79.488 29.574 79.483 29.529 79.481 29.484 79.47 29.44 79.46 29.402 79.444 29.368 79.43 29.332 79.414 29.288 79.399 29.244 79.376 29.203 79.357 29.169 79.334 29.14 79.312 29.109A1 1 0 0 0 79.227 28.999C79.2 28.97 79.167 28.945 79.136 28.919 79.109 28.897 79.086 28.87 79.057 28.851L47.705 7.951A1 1 0 0 0 47.425 7.825C47.402 7.819 47.379 7.818 47.356 7.813A1 1 0 0 0 47.081 7.794 1 1 0 0 0 46.65 7.916L36.989 13.494C36.937 13.524 36.893 13.563 36.848 13.601 36.83 13.616 36.809 13.627 36.792 13.643L36.782 13.652C36.763 13.671 36.75 13.694 36.733 13.714 36.696 13.757 36.658 13.798 36.629 13.847L36.626 13.855C36.609 13.883 36.6 13.916 36.586 13.946 36.565 13.992 36.542 14.036 36.527 14.085L36.523 14.097C36.514 14.129 36.514 14.164 36.509 14.197 36.502 14.241 36.489 14.283 36.488 14.328L36.49 14.346 36.488 14.363 36.511 22.472C29.344 26.69 23.55 36.774 23.573 45.037L23.59 50.851 10.6 58.35C10.548 58.38 10.503 58.42 10.458 58.458 10.44 58.473 10.42 58.483 10.404 58.499L10.394 58.509C10.377 58.526 10.366 58.546 10.351 58.564 10.312 58.609 10.272 58.653 10.242 58.704L10.239 58.712C10.223 58.739 10.214 58.772 10.2 58.801 10.179 58.847 10.155 58.893 10.14 58.943L10.136 58.955C10.127 58.987 10.128 59.021 10.122 59.055 10.115 59.099 10.102 59.141 10.101 59.186L10.103 59.205 10.101 59.222 10.133 70.324C10.133 70.445 10.162 70.56 10.204 70.67 10.213 70.694 10.221 70.717 10.231 70.74A1 1 0 0 0 10.417 71.013C10.431 71.028 10.448 71.038 10.463 71.053 10.501 71.087 10.536 71.124 10.579 71.153L41.93 92.053C41.938 92.059 41.948 92.06 41.957 92.066 41.967 92.073 41.976 92.083 41.986 92.088 42.033 92.115 42.085 92.13 42.135 92.15 42.161 92.16 42.185 92.173 42.211 92.181 42.3 92.206 42.392 92.221 42.484 92.221 42.568 92.221 42.652 92.209 42.734 92.189 42.761 92.181 42.785 92.168 42.812 92.159 42.861 92.141 42.911 92.128 42.958 92.102L42.969 92.094 42.985 92.087 79.12 71.222A1 1 0 0 0 79.62 70.353L79.587 58.735 84.324 53.547C84.504 53.587 84.687 53.646 84.902 53.752 85.176 53.888 85.439 54.068 85.707 54.307 85.974 54.542 86.184 54.79 86.352 55.068 86.536 55.389 86.679 55.711 86.747 56.162A4.226 4.226 0 0 0 90.916 59.747C91.295 59.747 91.673 59.695 92.04 59.594A4.225 4.225 0 0 0 94.975 54.402M45.775 10.733L47.114 9.96 76.609 29.623 68.88 34.085 39.386 14.421zM67.861 42.075L64.772 40.015 64.755 33.737 67.843 35.796zM60.216 36.978L59.297 36.366 59.278 30.087 60.199 30.701zM54.723 27.05L54.742 33.328 53.821 32.715 53.804 26.444zM39.87 17.147L49.248 23.399 49.265 29.677 38.515 22.51 38.497 16.231zM37.486 24.229L67.021 43.918C60.247 48.404 54.901 58.002 54.922 65.937L54.935 70.458 25.59 50.892 25.573 45.031C25.552 37.42 30.882 28.139 37.486 24.229M12.131 69.781L12.106 61.088 34.952 76.319 41.452 80.653 41.461 83.73 41.478 89.345zM42.967 78.664L42.488 78.94 26.863 68.523 12.995 59.277 23.896 52.983 24.553 52.604 54.047 72.268zM43.478 89.488L43.465 85.237 43.452 80.693 56.441 73.196A1 1 0 0 0 56.647 73.037C56.665 73.019 56.677 72.998 56.693 72.978A1 1 0 0 0 56.802 72.834C56.82 72.805 56.829 72.771 56.843 72.74 56.864 72.694 56.888 72.649 56.902 72.6 56.913 72.561 56.915 72.521 56.921 72.481 56.928 72.44 56.94 72.402 56.941 72.361L56.939 72.345C56.94 72.338 56.942 72.332 56.942 72.325L56.923 65.929C56.902 58.256 62.318 48.88 68.998 45.026L69.37 44.81C69.415 44.784 69.451 44.748 69.491 44.716 69.515 44.696 69.544 44.68 69.567 44.657 69.607 44.617 69.638 44.572 69.671 44.526 69.69 44.5 69.713 44.477 69.73 44.449 69.759 44.399 69.778 44.343 69.798 44.288 69.809 44.26 69.824 44.235 69.832 44.206 69.854 44.121 69.867 44.032 69.867 43.941L69.845 35.834 72.82 34.116 77.509 31.409 77.58 56.479 74.114 60.275 69.398 57.222C69.468 56.944 69.514 56.666 69.513 56.402 69.511 55.099 68.589 54.582 67.453 55.228 66.328 55.886 65.412 57.465 65.415 58.768 65.419 60.06 66.342 60.586 67.468 59.936 67.568 59.878 67.663 59.805 67.759 59.735L73.549 63.483A1.5 1.5 0 0 0 75.471 63.236L77.591 60.915 77.616 69.776z" fill="#ffffff" data-fill-palette-color="quaternary"></path><path d="M30.038 76.566L29.154 76.99 24.562 73.929A1.5 1.5 0 0 0 22.735 71.645L21.035 72.465A1.5 1.5 0 0 0 20.855 75.064L28.2 79.96A1.5 1.5 0 0 0 29.68 80.065L31.334 79.272A1.5 1.5 0 0 0 32.038 77.271 1.497 1.497 0 0 0 30.038 76.566" fill="#ffffff" data-fill-palette-color="quaternary"></path><path d="M56.35 45.51L56.436 45.568C56.787 45.803 57.175 45.913 57.56 45.913 58.229 45.913 58.884 45.577 59.292 44.967 59.936 44.008 59.636 42.681 58.678 42.039A2.089 2.089 0 1 0 56.35 45.51" fill="#ffffff" data-fill-palette-color="quaternary"></path><path d="M50.173 41.398L50.26 41.456C50.611 41.691 50.999 41.802 51.384 41.802 52.052 41.802 52.708 41.465 53.117 40.855 53.76 39.896 53.459 38.569 52.502 37.926A2.09 2.09 0 0 0 50.173 41.398" fill="#ffffff" data-fill-palette-color="quaternary"></path><path d="M44.009 37.294L44.096 37.352A2.09 2.09 0 0 0 46.992 36.76 2.09 2.09 0 0 0 46.401 33.864L46.313 33.806A2.09 2.09 0 0 0 44.009 37.294" fill="#ffffff" data-fill-palette-color="quaternary"></path><path d="M37.828 33.179L37.915 33.237C38.264 33.469 38.649 33.578 39.031 33.578A2.09 2.09 0 0 0 40.769 32.625C41.408 31.664 41.103 30.337 40.142 29.699A2.09 2.09 0 1 0 37.828 33.179" fill="#ffffff" data-fill-palette-color="quaternary"></path><path d="M52.026 47.507A2.09 2.09 0 0 0 52.598 50.407L52.685 50.466C53.034 50.699 53.423 50.811 53.808 50.811 54.477 50.811 55.132 50.474 55.54 49.865 56.183 48.907 55.884 47.579 54.926 46.936A2.09 2.09 0 0 0 52.026 47.507" fill="#ffffff" data-fill-palette-color="quaternary"></path><path d="M45.843 43.408A2.09 2.09 0 0 0 46.434 46.304L46.521 46.363A2.084 2.084 0 0 0 49.416 45.771 2.09 2.09 0 0 0 48.825 42.875L48.738 42.817A2.09 2.09 0 0 0 45.843 43.408" fill="#ffffff" data-fill-palette-color="quaternary"></path><path d="M39.67 39.292A2.09 2.09 0 0 0 40.253 42.189L40.34 42.247C40.687 42.478 41.073 42.587 41.455 42.587A2.09 2.09 0 0 0 43.193 41.634C43.832 40.673 43.526 39.346 42.566 38.707A2.09 2.09 0 0 0 39.67 39.292" fill="#ffffff" data-fill-palette-color="quaternary"></path><path d="M34.07 38.071L34.157 38.13C34.507 38.365 34.896 38.475 35.28 38.475A2.09 2.09 0 0 0 37.014 37.528C37.657 36.569 37.357 35.242 36.399 34.6A2.09 2.09 0 0 0 33.499 35.172 2.087 2.087 0 0 0 34.07 38.071" fill="#ffffff" data-fill-palette-color="quaternary"></path><path d="M52.229 52.534A2.09 2.09 0 1 0 49.902 56.006L49.987 56.064C50.338 56.298 50.726 56.409 51.11 56.409 51.78 56.409 52.435 56.072 52.843 55.464 53.486 54.505 53.187 53.177 52.229 52.534" fill="#ffffff" data-fill-palette-color="quaternary"></path><path d="M46.135 48.478L46.048 48.42A2.09 2.09 0 1 0 43.73 51.897L43.817 51.955C44.173 52.194 44.576 52.306 44.975 52.306 45.651 52.306 46.313 51.981 46.716 51.377A2.09 2.09 0 0 0 46.135 48.478" fill="#ffffff" data-fill-palette-color="quaternary"></path><path d="M39.952 44.36L39.865 44.303A2.09 2.09 0 1 0 37.56 47.79L37.648 47.848A2.087 2.087 0 0 0 40.543 47.257 2.09 2.09 0 0 0 39.952 44.36" fill="#ffffff" data-fill-palette-color="quaternary"></path><path d="M31.38 43.675L31.466 43.733C31.815 43.965 32.201 44.074 32.582 44.074 33.255 44.074 33.913 43.734 34.32 43.121 34.959 42.159 34.654 40.833 33.693 40.194A2.088 2.088 0 1 0 31.38 43.675" fill="#ffffff" data-fill-palette-color="quaternary"></path><path d="M50.863 58.99A2.087 2.087 0 0 0 47.964 59.562 2.086 2.086 0 0 0 48.535 62.46L48.621 62.519A2 2 0 0 0 49.744 62.865C50.416 62.865 51.07 62.527 51.477 61.92 52.121 60.96 51.821 59.633 50.863 58.99" fill="#ffffff" data-fill-palette-color="quaternary"></path><path d="M44.696 54.865A2.092 2.092 0 0 0 42.368 58.338L42.455 58.396C42.805 58.63 43.194 58.741 43.578 58.741 44.247 58.741 44.903 58.404 45.311 57.795 45.954 56.836 45.655 55.511 44.696 54.865" fill="#ffffff" data-fill-palette-color="quaternary"></path><path d="M38.527 50.741A2.09 2.09 0 0 0 35.628 51.313 2.087 2.087 0 0 0 36.199 54.212L36.286 54.27C36.635 54.505 37.023 54.617 37.408 54.617A2.09 2.09 0 0 0 39.141 53.669C39.786 52.712 39.487 51.384 38.527 50.741" fill="#ffffff" data-fill-palette-color="quaternary"></path><path d="M30.032 50.089L30.119 50.148A2 2 0 0 0 31.241 50.494C31.911 50.494 32.566 50.157 32.975 49.548 33.618 48.588 33.318 47.261 32.359 46.618A2.09 2.09 0 0 0 30.032 50.089" fill="#ffffff" data-fill-palette-color="quaternary"></path></g></svg></g></svg></g></svg></g></svg></g><g></g></svg></g></svg></g></svg></g><defs></defs></svg><rect width="512" height="320" fill="none" stroke="none" visibility="hidden"></rect></g></svg></g></svg>